<?xml version="1.0" encoding="utf-8"?>
<svg xmlns="http://www.w3.org/2000/svg" xmlns:xlink="http://www.w3.org/1999/xlink" width="55" height="55" viewBox="0 0 55 55">
  <defs>
    <path id="a" d="M2.716 4.385h165.333V51.1H2.716z"/>
  </defs>
  <clipPath id="b">
    <use xlink:href="#a" overflow="visible"/>
  </clipPath>
  <path clip-path="url(#b)" d="M24.691 7.159c-5.866 0-11.384 2.289-15.542 6.438-4.147 4.149-6.435 9.669-6.435 15.535 0 5.876 2.287 11.396 6.435 15.539 4.158 4.147 9.675 6.429 15.542 6.429 5.87 0 11.384-2.281 15.531-6.429 4.158-4.144 6.44-9.663 6.44-15.539 0-5.866-2.282-11.386-6.44-15.535-4.146-4.15-9.66-6.438-15.531-6.438m0 41.857c-10.965 0-19.885-8.915-19.885-19.884 0-10.962 8.919-19.88 19.885-19.88 10.961 0 19.883 8.918 19.883 19.88.001 10.969-8.922 19.884-19.883 19.884"/>
  <path clip-path="url(#b)" d="M18.068 16.063v-3.077h-1.921v3.552c-1.301.401-2.056.815-1.932 1.069.431-.118 1.115-.169 1.932-.121v18.495c-1.962 3.833.861 9.698.861 9.698s-2.124-6.299 2.6-9.272c4.337-2.732 19.302-1.451 19.246-9.894-.065-11.962-13.868-11.891-20.786-10.45m6.177 11.597c-.673 3.185-4.147 4.845-6.177 6.224V17.779c3.459.83 7.525 3.489 6.177 9.881M59.936"/>
</svg>
